<svg xmlns="http://www.w3.org/2000/svg" width="92" height="91" viewBox="0 0 92 91"><g><g><g transform="rotate(-45 46 45.5)"><path fill="#464749" d="M.874 45.237C.874 20.315 21.078.112 46 .112c24.922 0 45.126 20.203 45.126 45.125S70.922 90.363 46 90.363C21.078 90.363.874 70.159.874 45.237z"></path></g><g><path fill="#ffef23" d="M77.539 45.328c0 17.36-14.073 31.434-31.433 31.434-17.361 0-31.435-14.074-31.435-31.434 0-17.362 14.074-31.435 31.435-31.435 17.36 0 31.433 14.073 31.433 31.435z"></path><path fill="none" stroke="#464749" stroke-miterlimit="20" d="M77.539 45.328c0 17.36-14.073 31.434-31.433 31.434-17.361 0-31.435-14.074-31.435-31.434 0-17.362 14.074-31.435 31.435-31.435 17.36 0 31.433 14.073 31.433 31.435z"></path></g><g><g><path fill="#fff" d="M16.42 60.532c.408.777.51 1.492.308 2.144-.203.653-.488 1.12-.856 1.406-.367.285-.908.614-1.625.992-.751.393-1.337.656-1.758.79a2.14 2.14 0 0 1-1.309-.012 3.275 3.275 0 0 1-1.137-.593 3.189 3.189 0 0 1-.77-.975c-.363-.691-.47-1.382-.32-2.074.15-.69.581-1.302 1.29-1.835l.922 1.758c-.226.203-.378.408-.454.616-.077.208-.044.446.098.717.083.158.178.28.286.366a.8.8 0 0 0 .382.164c.148.024.349-.003.606-.08.26-.076.679-.266 1.257-.57.6-.314.994-.548 1.188-.699.193-.152.34-.333.439-.545.097-.212.067-.469-.091-.772-.139-.263-.303-.43-.495-.501a1.22 1.22 0 0 0-.648-.045l-.923-1.757c.791-.255 1.498-.242 2.124.039.626.28 1.12.77 1.487 1.466z"></path></g></g><g><g><path fill="#fff" d="M10.486 52.23l.296 1.349-2.222-.244zm2.132-3.458l-7.149 4.52.322 1.47 8.382 1.125-.435-1.995-1.249-.126-.522-2.384 1.088-.616z"></path></g></g><g><g><path fill="#fff" d="M12.932 40.433l-3.764-.346 1.817 1.299-.182 1.237-1.956.951 3.764.345-.18 1.943-7.915-.727.175-1.91 3.65-1.456-3.323-2.096.176-1.91 7.917.727z"></path></g></g><g><g><path fill="#fff" d="M9.574 29.734c.101-.241.252-.4.459-.48a.789.789 0 0 1 .607.003.789.789 0 0 1 .433.425c.089.203.085.424-.013.665l-.422 1.019-1.485-.612.421-1.02zm3.193-.926a2.508 2.508 0 0 0-1.382-1.355 2.518 2.518 0 0 0-1.94-.023c-.647.252-1.132.77-1.455 1.552l-1.2 2.907 7.349 3.034.745-1.803-2.629-1.085.456-1.102c.32-.777.339-1.485.056-2.125z"></path></g></g><g><g><path fill="#fff" d="M19.838 24.57c-.525.665-1.17 1.061-1.94 1.188-.768.128-1.487-.074-2.158-.604l-4.042-3.193 1.21-1.53 4.007 3.164c.285.225.565.331.838.315.274-.016.513-.155.72-.418.203-.256.286-.523.25-.8-.04-.275-.203-.528-.495-.759l-4.007-3.166 1.21-1.53 4.04 3.192c.667.526 1.025 1.181 1.077 1.966.052.785-.184 1.51-.71 2.175z"></path></g></g><g><g><path fill="#fff" d="M26.113 18.47c-.534.392-1.039.668-1.516.83-.476.16-.987.196-1.532.106l.268-1.745c.27.042.56.005.867-.11a3.77 3.77 0 0 0 .893-.488c.611-.45.777-.865.495-1.25-.12-.16-.233-.252-.344-.272a.801.801 0 0 0-.3-.002 1.08 1.08 0 0 0-.307.128l-.851.46c-.632.334-1.202.46-1.71.376-.508-.084-.966-.405-1.376-.962-.436-.594-.581-1.233-.438-1.918.142-.685.573-1.291 1.293-1.819.471-.348.924-.59 1.354-.726.43-.135.885-.166 1.363-.093l-.264 1.714a1.523 1.523 0 0 0-.644.045c-.223.061-.466.189-.73.383l-.117.085c-.257.189-.406.389-.45.6a.679.679 0 0 0 .113.562.47.47 0 0 0 .153.141c.054.03.12.05.198.063.078.012.162.01.252-.005s.196-.059.32-.13l.851-.46c.622-.334 1.123-.474 1.504-.42.383.057.695.174.94.35.245.174.481.418.708.73.46.623.586 1.287.378 1.992-.207.705-.664 1.317-1.371 1.836z"></path></g></g><g><g><path fill="#fff" d="M38.282 9.817l-1.344.321.2-2.226zm3.5 2.062L37.118 4.82l-1.463.35-.952 8.406 1.983-.477.1-1.25 2.375-.57.636 1.074z"></path></g></g><g><g><path fill="#fff" d="M46.798 5.606l-.05 1.392 2.943.103-.06 1.738-2.943-.102-.106 3.076-1.95-.069.276-7.945 5.395.188-.061 1.738z"></path></g></g><g><g><path fill="#fff" d="M58.565 7.894a.79.79 0 0 1 .05.605.787.787 0 0 1-.385.47c-.194.107-.414.122-.662.044l-1.054-.328.478-1.533 1.052.328c.25.079.422.215.521.414zm.714 6.463l-.653-3.683a2.48 2.48 0 0 0 1.11-.49c.347-.26.594-.63.743-1.105a2.522 2.522 0 0 0-.152-1.933c-.308-.622-.867-1.059-1.676-1.31L55.65 4.9l-2.364 7.59 1.864.58.88-2.831.63.196.458 3.248z"></path></g></g><g><g><path fill="#fff" d="M61.875 15.793l3.975-6.884 1.69.975-3.975 6.886z"></path></g></g><g><g><path fill="#fff" d="M68.55 20.629c-.648-.59-.99-1.226-1.021-1.909-.033-.683.075-1.22.32-1.614.247-.392.643-.89 1.19-1.489.57-.627 1.03-1.074 1.38-1.343.35-.269.761-.415 1.234-.44a3.29 3.29 0 0 1 1.271.171c.374.135.727.352 1.057.652.577.525.914 1.137 1.01 1.838.098.7-.097 1.423-.582 2.166l-1.469-1.335c.144-.268.215-.514.216-.735 0-.222-.111-.436-.337-.641a1.16 1.16 0 0 0-.394-.245.818.818 0 0 0-.416-.024c-.146.028-.327.122-.543.283-.216.16-.545.482-.984.967-.455.5-.748.854-.877 1.063-.13.208-.205.428-.225.662-.021.231.096.464.347.694.22.2.433.3.638.302.205.002.413-.058.624-.18l1.468 1.335c-.654.509-1.323.74-2.007.691-.684-.05-1.316-.34-1.9-.869z"></path></g></g><g><g><path fill="#fff" d="M76.975 26.394l-.743-1.167 2.17-.533zm-.814 3.98l5.16-6.703-.808-1.27-8.258 1.828 1.094 1.722 1.216-.311 1.31 2.061-.81.95z"></path></g></g><g><g><path fill="#464749" d="M41.694 46.866c-2.815-.853-5.218-2.961-6.31-5.935-1.842-5.016.725-10.592 5.721-12.427 2.497-.916 5.112-.861 7.186.152a1.484 1.484 0 0 0 1.953-.716l.695-1.504c.323-.697.024-1.535-.695-1.913-3.163-1.524-7.066-1.63-10.708-.293-7.374 2.709-11.169 10.91-8.461 18.284 1.88 5.118 6.41 8.508 11.47 9.198z"></path></g><g><path fill="#464749" d="M55.12 41.215c-.737-.339-1.684.046-1.952.717a8.614 8.614 0 0 1-1.858 2.58l2.84 3.587a13.558 13.558 0 0 0 3.177-4.27c.151-.325.166-.718.042-1.079a1.434 1.434 0 0 0-.745-.838z"></path></g><g><path fill="#464749" d="M53.24 53.217c-.1.355-.37.646-.724.774l-5.43 1.995c-.425.155-.893.104-1.223-.133a.915.915 0 0 1-.396-.78l-.173-9.22a1.108 1.108 0 0 1 .73-1.05.956.956 0 0 1 1.089.296l5.95 7.204c.202.251.265.59.177.914m9.902 5.576l-16.935-20.54c-.35-.405-1.041-.552-1.612-.344l-2.023.744c-.566.206-1.028.815-1.029 1.365l.372 26.568c.002.481.247.957.62 1.216.293.203.645.253.963.138l1.715-.628c.342-.126 1.252-.46 1.253-1.49l-.07-5.116c.008-.555.199-.671.379-.737l8.236-3.026c.347-.127.639-.088 1.107.5l3.062 3.717c.661.779 1.57.445 1.914.318l1.714-.63c.363-.134.611-.4.7-.747.109-.423-.035-.93-.366-1.308"></path></g><g><g><path fill="#fff" d="M30.86 3.974l-.224-.616.226.616a43.81 43.81 0 0 1 15.139-2.707c17.893.002 34.706 11.018 41.236 28.797A43.823 43.823 0 0 1 89.94 45.2c-.002 17.896-11.018 34.712-28.795 41.238a43.86 43.86 0 0 1-15.138 2.706C28.115 89.142 11.3 78.126 4.774 60.35a43.811 43.811 0 0 1-2.706-15.138c0-17.896 11.019-34.711 28.793-41.238zM3.54 60.803c6.726 18.305 24.04 29.653 42.468 29.653 5.178 0 10.447-.896 15.59-2.783 18.308-6.726 29.656-24.04 29.656-42.472 0-5.18-.898-10.446-2.786-15.59C81.743 11.304 64.428-.045 46-.043c-5.18 0-10.45.896-15.591 2.785C12.103 9.465.755 26.78.755 45.212a45.2 45.2 0 0 0 2.785 15.59z"></path></g></g></g></g></g></svg>