<?xml version="1.0" encoding="utf-8"?>
<!-- Generator: Adobe Illustrator 26.0.1, SVG Export Plug-In . SVG Version: 6.00 Build 0)  -->
<svg version="1.1" id="Layer_5" xmlns="http://www.w3.org/2000/svg" xmlns:xlink="http://www.w3.org/1999/xlink" x="0px" y="0px"
	 viewBox="0 0 345.2 251.6" style="enable-background:new 0 0 345.2 251.6;" xml:space="preserve">
<style type="text/css">
	.st0{fill:#FAA61A;}
	.st1{fill:#F05A22;}
	.st2{fill:#1986C8;}
	.st3{fill:#064A6D;}
	.st4{fill:#FFFFFF;}
</style>
<g>
	<path class="st0" d="M155.5,21.5c55.3,1.6,106.5,0.2,153-3.1c0.7,9,0.7,21-1.9,34.7c-0.9,4.8-2.1,9.2-3.3,13.3
		c4.7-1.1,9.2-2.2,13.7-3.4c0.3-3.4,0.4-6.9,0.4-10.4c0-18.6-3.6-36.4-10.2-52.7H46.8C45,4.5,43.4,9.2,42,14
		C77.5,17.7,115.4,20.3,155.5,21.5z"/>
	<path class="st0" d="M76.9,140c-5.3-17.8-10.6-35.6-15.9-53.5c17.7,1.2,37,1.9,57.7,1.8c-29.4-2.3-56.2-6.3-80-11
		c13.7,76.3,86.5,127.1,162.8,113.5c40.9-7.3,76.5-32.3,97.1-68.3c-23.7,7.5-51.3,14.2-82.4,18.5C159.8,148.6,111.6,145.2,76.9,140z
		"/>
	<path class="st1" d="M177,222.4c-8.1,0-14.6,6.5-14.6,14.6l0,0c0,0,0,0,0,0c0,8.1,6.6,14.6,14.6,14.6c8.1,0,14.6-6.5,14.6-14.6
		C191.6,229,185.1,222.4,177,222.4z"/>
	<polygon class="st1" points="335.4,133.2 332.7,127.9 331,127.9 331,137.2 332.7,137.2 332.7,131.1 334.7,135 336.2,135 
		338.2,131.1 338.2,137.2 339.8,137.2 339.8,127.9 338.2,127.9 	"/>
	<path class="st1" d="M299.1,122.4c-0.1,0-0.2,0.1-0.3,0.1c-20.7,36-56.2,61-97.1,68.3C125.3,204.4,52.4,153.6,38.8,77.4
		c23.8,4.7,50.6,8.7,80,11c28.5-0.1,59.7-1.7,92.9-5.7c-1.6,0-3.2,0.1-4.8,0.1c0.9-15.1,1.6-30.2,2.3-45.3c-5.4,0-10.8,0-16.2,0
		l0.2-7.7c13.7,0.1,27.5,0,41.2-0.3l-0.4,7.6v0c-5.3,0.1-10.6,0.2-15.9,0.3c-0.7,14.9-1.6,29.9-2.6,44.8c8.5-1,16.8-2.2,24.9-3.5
		c1.6-16.5,2.9-32.9,3.9-49.4l8.5-0.2c-0.5,7.7-1.1,15.4-1.8,23.1c7.3-0.3,14.5-0.8,21.7-1.2c0.8-7.6,1.5-15.2,2.1-22.8l8-0.4
		c-1.3,14.8-2.9,29.6-4.9,44.3c8.7-1.8,17.2-3.6,25.4-5.6c1.2-4.1,2.4-8.5,3.3-13.3c2.7-13.7,2.6-25.7,1.9-34.7
		c-46.5,3.2-97.7,4.7-153,3.1c-40.1-1.2-78-3.9-113.5-7.5c1.4-4.8,3-9.5,4.8-14H30.4c-1.4,4-2.7,8.1-3.9,12.3
		c-9-1-17.9-2.1-26.5-3.2c0.5,10.6,1.5,22,3.3,34.2C4.7,53,6.4,62.1,8.2,70.5c4.7,1.2,9.5,2.3,14.5,3.4
		c7.4,53.6,42.1,99.5,91.6,121.2c78.7,34.6,170.5-1.1,205.2-79.8c-4.9,1.8-10,3.6-15.4,5.3C302.5,121.3,300.8,121.8,299.1,122.4z
		 M150,29c0,11.9,0,23.8,0,35.8c0.2,6.8,5.2,11.3,11.9,11.4c6.7,0.2,11.8-4,12.1-10.8l0.7-35.8l9.1,0.1c-0.3,12.1-0.6,24.1-0.9,36.1
		v0c-0.7,11.2-10.5,17.1-21,17.1c-10.5-0.6-20.1-7-20.6-18.2c-0.2-12-0.3-24-0.3-36.1L150,29z M93.3,31.6c4-3.6,9.2-5.4,14.6-5
		c5.8,0.3,11.2,2.8,15.3,6.8c5.9,6.1,5.8,14.2,5.9,22.2v0c0.1,7.1,1,15.1-4.8,20.3c-4,3.2-9.2,4.7-14.3,4.1
		c-5.4-0.5-10.5-2.8-14.5-6.5c-5.7-5.6-6.1-13.2-6.5-20.8C88.6,45.4,87.7,37.3,93.3,31.6z M60.6,23.1c6.2,0.5,12.1,3.2,16.5,7.6
		l-4.9,4.7c-3.1-3-7.2-4.9-11.5-5.2c-4.8-0.4-8.9,2.1-8.6,7.2c0.1,1.9,0.9,3.7,2.2,5c1.6,1.5,3.6,2.5,5.8,3.1l5.8,1.5
		c3.7,0.8,7.1,2.5,9.9,4.9c3,2.9,4.8,6.7,5,10.9c0.6,9.8-8.5,13.1-16.8,12C57.4,74,51.2,70.9,46.5,66l4.2-4c3.4,3.5,8,5.8,12.9,6.4
		c4.5,0.6,10-0.6,9.7-6.2c-0.1-2.1-1-4-2.4-5.5c-1.6-1.4-3.6-2.4-5.7-2.8l-6-1.6c-3.6-0.9-6.9-2.7-9.6-5.2
		c-2.6-2.8-4.1-6.4-4.4-10.2C44.4,27.4,51.6,22.4,60.6,23.1z"/>
	<path class="st1" d="M317.3,52.7c0,3.5-0.1,7-0.4,10.4c0.2,0,0.4-0.1,0.6-0.1c0.7-0.2,1.4-0.4,2.1-0.6c4.4-1.1,8.7-2.3,12.9-3.4
		c0.1-2.1,0.1-4.2,0.1-6.3c0-18.4-3.2-36.1-9.2-52.7h-16.4C313.7,16.3,317.3,34,317.3,52.7z"/>
	<polygon class="st1" points="322.8,127.9 322.8,129.4 325.3,129.4 325.3,137.2 327,137.2 327,129.4 329.5,129.4 329.5,127.9 	"/>
	<path class="st2" d="M336.2,109c2.3-7.6,4.6-16.4,6.2-26.2c1.7-10.1,2.5-19.4,2.7-27.5c-3.9,1.1-7.9,2.3-12,3.4
		c-0.8,19.5-5.4,38.7-13.3,56.6C325.6,113.2,331.1,111.1,336.2,109z"/>
	<path class="st2" d="M179.8,118.4c-0.5-4.6-0.6-10.1-4.6-13.1c-2.5-1.7-5.5-2.5-8.6-2.2c-2.9,0.1-5.7,1.2-7.9,3.2
		c-3.3,3.6-2,9.1-1.3,13.4c0.6,4.4,1,9.5,4.9,12.2c2.4,1.5,5.3,2.1,8.1,1.9c2.8-0.1,5.4-1.1,7.5-2.8
		C181.3,127.7,180.2,122.5,179.8,118.4L179.8,118.4z"/>
	<path class="st2" d="M299.1,78c-35.5,6.9-78.8,12.4-128.2,12.4c-18.2,0-35.6-0.7-52.2-2c-20.7,0.1-40-0.6-57.7-1.8
		c5.3,17.8,10.6,35.6,15.9,53.5c34.7,5.2,82.9,8.6,139.4,0.9c31.1-4.2,58.7-11,82.4-18.5c0.1,0,0.2-0.1,0.3-0.1
		c10.6-18.3,16.8-38.7,18.4-59.5c-0.2,0-0.4,0.1-0.6,0.1c-4.5,1.1-9,2.3-13.7,3.4C301.9,70.7,300.5,74.6,299.1,78z M125.6,124.6
		c-3.8,0-7.7-0.1-11.6-0.2c1.1,4.9,2.3,9.8,3.6,14.7c-2.5-0.1-4.9-0.2-7.4-0.3c-3.6-13.3-6.7-26.7-9.6-40.2
		c6.6,0.1,13.3,0.2,19.9,0.1c8.5,0.1,17.6,4.1,19.5,13.2v0C141.2,120.7,133.2,124.5,125.6,124.6z M184.4,134
		c-3.8,3-8.5,4.7-13.3,4.8c-5,0.3-9.9-0.8-14.2-3.3c-5.6-3.6-6.6-9.4-7.6-15.5c-1-6.2-2.1-12.6,2.6-17.5c3.8-3.6,8.7-5.3,13.9-5.7
		c5.4-0.4,10.7,1,15.3,3.9c5.7,4.1,6.3,10.5,6.9,17.1v0C188.5,123.6,189.3,129.6,184.4,134z M209.3,135.2c-2.6,0.3-5.2,0.6-7.8,0.9
		c-0.9-13.9-1.9-27.7-2.9-41.6c2.8-0.3,5.6-0.6,8.5-0.9C207.9,107.5,208.6,121.4,209.3,135.2L209.3,135.2z M260.2,127.1L260.2,127.1
		c-2.2,0.5-4.5,0.9-6.8,1.3c-7.9-8-15.7-16.1-23.3-24.3c0.2,9.4,0.3,18.8,0.3,28.2c-2.6,0.4-5.1,0.8-7.7,1.1
		c-0.2-13.9-0.7-27.8-1.2-41.6c2.5-0.3,5.1-0.7,7.6-1c8,8.9,16,17.7,24.2,26.4c0.3-10,0.5-20.1,0.6-30.1c2.6-0.4,5.3-0.9,7.9-1.4
		C261.6,99.6,261.1,113.3,260.2,127.1z M304.3,82.8L304.3,82.8c-4.3,1.1-8.5,2.1-12.8,3.1c-0.8,11.6-1.8,23.2-3.3,34.8
		c-2.3,0.6-4.6,1.2-6.9,1.7c1.3-11.6,2.2-23.2,2.9-34.9c-4.5,1-9.1,1.9-13.6,2.8l0.2-6.2c11.4-2.2,22.8-4.6,34.1-7.4L304.3,82.8z"/>
	<path class="st2" d="M132,112.1c-1.1-5.1-6-7.1-10.7-7.2c-3.8,0-7.7,0-11.5,0c1,4.7,2,9.4,3,14.1c3.7,0.1,7.5,0.1,11.2,0.2
		C128.3,119,132.7,117,132,112.1L132,112.1z"/>
	<path class="st1" d="M250.3,59.3c-0.5,6-1.1,12.1-1.8,18.1c7.3-1.2,14.5-2.5,21.5-3.9c0.7-5.2,1.3-10.4,1.9-15.6
		C264.7,58.5,257.5,58.9,250.3,59.3z"/>
	<path class="st1" d="M101.4,69.6c2.2,2.2,5.2,3.5,8.3,3.8c2.9,0.3,5.8-0.6,8.1-2.5c4-3.9,2.9-10.7,2.7-15.8v0
		c-0.2-5.7,0.2-12.4-3.8-16.9c-2.3-2.3-5.3-3.7-8.6-3.9c-3-0.3-6,0.8-8.3,2.8c-3.9,4.2-2.8,11.1-2.5,16.4
		C97.6,58.9,97.4,65.4,101.4,69.6z"/>
	<path class="st3" d="M299.1,78c1.4-3.4,2.8-7.3,4.1-11.5c-8.2,1.9-16.7,3.8-25.4,5.6c-0.3,2.2-0.6,4.4-0.9,6.7l0,0
		c-2.5,0.3-5.1,0.5-7.6,0.7c0.3-2,0.5-3.9,0.7-5.9c-7,1.4-14.2,2.7-21.5,3.9c-0.1,1.2-0.2,2.4-0.4,3.6c-2.7,0.2-5.4,0.3-8.1,0.5
		c0.1-0.9,0.2-1.9,0.3-2.8c-8.1,1.3-16.4,2.4-24.9,3.5c0,0.1,0,0.2,0,0.4c-1.2,0-2.5,0.1-3.7,0.1c-33.3,4-64.4,5.6-92.9,5.7
		c16.6,1.3,34,2,52.2,2C220.3,90.3,263.6,84.9,299.1,78z"/>
	<path class="st3" d="M317.5,62.9c-1.6,20.7-7.8,41.1-18.4,59.5c1.7-0.5,3.4-1.1,5-1.6c5.3-1.8,10.5-3.5,15.4-5.3
		c0.1,0,0.2-0.1,0.3-0.1c7.9-17.8,12.4-37,13.3-56.6c-0.2,0.1-0.4,0.1-0.6,0.2c-4.2,1.2-8.5,2.3-12.9,3.4
		C318.9,62.6,318.2,62.7,317.5,62.9z"/>
	<path class="st4" d="M253.3,117.3c-8.2-8.7-16.3-17.5-24.2-26.4c-2.5,0.3-5.1,0.7-7.6,1c0.6,13.9,1,27.8,1.2,41.6
		c2.6-0.4,5.2-0.7,7.7-1.1c0-9.4-0.1-18.8-0.3-28.2c7.7,8.2,15.4,16.3,23.3,24.3c2.2-0.4,4.5-0.9,6.8-1.3l0,0
		c0.9-13.8,1.4-27.6,1.6-41.4c-2.6,0.5-5.3,0.9-7.9,1.4C253.9,97.2,253.7,107.2,253.3,117.3z"/>
	<path class="st4" d="M49.4,47.1c2.7,2.6,6,4.4,9.6,5.2l6,1.6c2.1,0.4,4.1,1.4,5.7,2.8c1.5,1.5,2.3,3.4,2.4,5.5
		c0.4,5.6-5.1,6.8-9.7,6.2c-4.9-0.6-9.4-2.8-12.9-6.4l-4.2,4c4.7,4.9,10.9,8,17.6,8.8c8.4,1.1,17.4-2.2,16.8-12c-0.2-4.1-2-8-5-10.9
		c-2.9-2.4-6.3-4.1-9.9-4.9l-5.8-1.5c-2.1-0.5-4.1-1.6-5.8-3.1c-1.3-1.3-2.1-3.1-2.2-5c-0.3-5.2,3.8-7.7,8.6-7.2
		c4.3,0.3,8.4,2.2,11.5,5.2l4.9-4.7c-4.4-4.4-10.3-7.1-16.5-7.6c-8.9-0.7-16.2,4.3-15.5,13.8C45.3,40.7,46.8,44.3,49.4,47.1z"/>
	<path class="st4" d="M95.6,73.5c4,3.7,9.1,6,14.5,6.5c5.1,0.6,10.3-0.9,14.3-4.1c5.8-5.2,4.9-13.2,4.8-20.3v0
		c-0.2-7.9-0.1-16.1-5.9-22.2c-4.1-4-9.5-6.5-15.3-6.8c-5.3-0.4-10.6,1.4-14.6,5c-5.6,5.7-4.7,13.8-4.3,21.1
		C89.5,60.3,89.9,67.9,95.6,73.5z M99.8,37.1c2.2-2.1,5.2-3.1,8.3-2.8c3.2,0.2,6.3,1.6,8.6,3.9c4.1,4.5,3.6,11.3,3.8,16.9v0
		c0.2,5.1,1.2,11.9-2.7,15.8c-2.2,1.9-5.2,2.8-8.1,2.5c-3.1-0.3-6-1.6-8.3-3.8c-4-4.2-3.8-10.7-4.1-16.1
		C97,48.2,95.9,41.3,99.8,37.1z"/>
	<path class="st4" d="M215.4,82.2c1-14.9,1.9-29.9,2.6-44.8c5.3-0.1,10.6-0.2,15.9-0.3v0l0.4-7.6c-13.7,0.3-27.5,0.4-41.2,0.3
		l-0.2,7.7c5.4,0,10.8,0,16.2,0c-0.6,15.1-1.4,30.2-2.3,45.3c1.6,0,3.2-0.1,4.8-0.1c1.2,0,2.5-0.1,3.7-0.1
		C215.4,82.5,215.4,82.4,215.4,82.2z"/>
	<path class="st4" d="M140.1,111.9c-1.8-9.1-11-13-19.5-13.2c-6.6,0.1-13.3,0-19.9-0.1c2.8,13.5,6,26.9,9.6,40.2
		c2.5,0.1,4.9,0.2,7.4,0.3c-1.3-4.9-2.4-9.8-3.6-14.7c3.8,0.1,7.7,0.2,11.6,0.2C133.2,124.5,141.2,120.7,140.1,111.9L140.1,111.9z
		 M124,119c-3.7,0-7.5-0.1-11.2-0.2c-1-4.7-2-9.4-3-14.1c3.8,0,7.6,0.1,11.5,0c4.7,0.1,9.6,2.1,10.7,7.2l0,0
		C132.7,117,128.3,119,124,119z"/>
	<path class="st4" d="M248.2,81.1c0.1-1.2,0.3-2.4,0.4-3.6c0.6-6,1.2-12.1,1.8-18.1c7.2-0.4,14.4-0.8,21.6-1.3
		c-0.6,5.2-1.2,10.4-1.9,15.6c-0.2,2-0.5,3.9-0.7,5.9c2.5-0.2,5.1-0.5,7.6-0.7l0,0c0.3-2.2,0.6-4.4,0.9-6.7
		c2-14.7,3.6-29.5,4.9-44.3l-8,0.4c-0.6,7.6-1.3,15.2-2.1,22.8c-7.2,0.5-14.5,0.9-21.7,1.2c0.6-7.7,1.2-15.4,1.8-23.1l-8.5,0.2
		c-1,16.5-2.3,33-3.9,49.4c-0.1,0.9-0.2,1.9-0.3,2.8C242.7,81.4,245.4,81.3,248.2,81.1z"/>
	<path class="st4" d="M270.5,90.3c4.6-0.9,9.1-1.8,13.6-2.8c-0.6,11.7-1.6,23.3-2.9,34.9c2.3-0.6,4.6-1.1,6.9-1.7
		c1.5-11.6,2.5-23.2,3.3-34.8c4.3-1,8.6-2,12.8-3.1l0,0l0.5-6.1c-11.3,2.7-22.6,5.2-34.1,7.4L270.5,90.3z"/>
	<path class="st4" d="M188,117.7c-0.6-6.5-1.2-13-6.9-17.1c-4.5-2.9-9.9-4.3-15.3-3.9c-5.2,0.4-10.1,2-13.9,5.7
		c-4.8,4.9-3.6,11.4-2.6,17.5c1,6.1,2,12,7.6,15.5c4.3,2.5,9.2,3.6,14.2,3.3c4.8-0.2,9.5-1.9,13.3-4.8
		C189.3,129.6,188.5,123.6,188,117.7L188,117.7z M178,131c-2.1,1.8-4.8,2.7-7.5,2.8c-2.8,0.2-5.7-0.5-8.1-1.9
		c-3.9-2.7-4.3-7.8-4.9-12.2c-0.6-4.4-2-9.8,1.3-13.4c2.1-2,4.9-3.1,7.9-3.2c3-0.2,6,0.6,8.6,2.2c4,3,4.2,8.5,4.6,13.1v0
		C180.2,122.5,181.3,127.7,178,131z"/>
	<path class="st4" d="M198.6,94.5c1,13.9,2,27.7,2.9,41.6c2.6-0.3,5.2-0.6,7.8-0.9l0,0c-0.7-13.9-1.4-27.8-2.3-41.6
		C204.2,93.9,201.4,94.2,198.6,94.5z"/>
	<path class="st4" d="M161.9,83c10.5,0,20.3-5.8,21-17.1v0c0.3-12,0.6-24.1,0.9-36.1l-9.1-0.1L174,65.4c-0.3,6.8-5.5,11-12.1,10.8
		c-6.7-0.2-11.7-4.7-11.9-11.4c-0.1-11.9-0.1-23.8,0-35.8l-9-0.3c0,12,0.1,24,0.3,36.1C141.8,76,151.3,82.4,161.9,83z"/>
</g>
</svg>
